HIERARCHY
ROOT reference
{
  OFFSET 0 0 0
  CHANNELS 6 Xposition Yposition Zposition Zrotation Xrotation Yrotation
  JOINT Hips
  {
    OFFSET 6.92585 87.1781 21.7545
    CHANNELS 6 Xposition Yposition Zposition Zrotation Xrotation Yrotation
    JOINT Spine
    {
      OFFSET 0 7.81434 0
      CHANNELS 6 Xposition Yposition Zposition Zrotation Xrotation Yrotation
      JOINT Spine1
      {
        OFFSET 0 23.3781 0
        CHANNELS 6 Xposition Yposition Zposition Zrotation Xrotation Yrotation
        JOINT Neck
        {
          OFFSET 0 23.2821 2.11656
          CHANNELS 6 Xposition Yposition Zposition Zrotation Xrotation Yrotation
          JOINT Head
          {
            OFFSET 0 13.3416 -1.90594
            CHANNELS 6 Xposition Yposition Zposition Zrotation Xrotation Yrotation
            End Site
            {
              OFFSET 0 23.8242 0
            }
          }
        }
        JOINT LeftShoulder
        {
          OFFSET 3.82472 21.4916 -0.175476
          CHANNELS 6 Xposition Yposition Zposition Zrotation Xrotation Yrotation
          JOINT LeftArm
          {
            OFFSET 10.8239 0 0
            CHANNELS 6 Xposition Yposition Zposition Zrotation Xrotation Yrotation
            JOINT LeftForeArm
            {
              OFFSET 28.5356 0 0
              CHANNELS 6 Xposition Yposition Zposition Zrotation Xrotation Yrotation
              JOINT LeftHand
              {
                OFFSET 24.5315 0 0
                CHANNELS 6 Xposition Yposition Zposition Zrotation Xrotation Yrotation
                End Site
                {
                  OFFSET 14.2945 0 0
                }
              }
            }
          }
        }
        JOINT RightShoulder
        {
          OFFSET -3.77033 21.4916 -0.175476
          CHANNELS 6 Xposition Yposition Zposition Zrotation Xrotation Yrotation
          JOINT RightArm
          {
            OFFSET -10.8239 0 0
            CHANNELS 6 Xposition Yposition Zposition Zrotation Xrotation Yrotation
            JOINT RightForeArm
            {
              OFFSET -28.5356 0 0
              CHANNELS 6 Xposition Yposition Zposition Zrotation Xrotation Yrotation
              JOINT RightHand
              {
                OFFSET -24.5315 0 0
                CHANNELS 6 Xposition Yposition Zposition Zrotation Xrotation Yrotation
                End Site
                {
                  OFFSET -14.2945 0 0
                }
              }
            }
          }
        }
      }
    }
    JOINT LeftUpLeg
    {
      OFFSET 9.52968 0 0
      CHANNELS 6 Xposition Yposition Zposition Zrotation Xrotation Yrotation
      JOINT LeftLeg
      {
        OFFSET 0 -40.1884 0
        CHANNELS 6 Xposition Yposition Zposition Zrotation Xrotation Yrotation
        JOINT LeftFoot
        {
          OFFSET 0 -39.9954 0
          CHANNELS 6 Xposition Yposition Zposition Zrotation Xrotation Yrotation
          JOINT LeftToeBase
          {
            OFFSET 0 -6.19429 14.2945
            CHANNELS 6 Xposition Yposition Zposition Zrotation Xrotation Yrotation
            End Site
            {
              OFFSET 0 0 3.81187
            }
          }
        }
      }
    }
    JOINT RightUpLeg
    {
      OFFSET -9.52968 0 0
      CHANNELS 6 Xposition Yposition Zposition Zrotation Xrotation Yrotation
      JOINT RightLeg
      {
        OFFSET 0 -40.1884 0
        CHANNELS 6 Xposition Yposition Zposition Zrotation Xrotation Yrotation
        JOINT RightFoot
        {
          OFFSET 0 -39.9954 0
          CHANNELS 6 Xposition Yposition Zposition Zrotation Xrotation Yrotation
          JOINT RightToeBase
          {
            OFFSET 0 -6.19429 14.2945
            CHANNELS 6 Xposition Yposition Zposition Zrotation Xrotation Yrotation
            End Site
            {
              OFFSET 0 0 3.81187
            }
          }
        }
      }
    }
  }
}
MOTION
Frames:	9
Frame Time:	0.004
0 0 0 0 0 -0 1.28871 94.6688 -49.5364 1.31354 3.45261 -2.07891 -4.44089e-016 7.81434 0 0.325572 2.608 1.11001 4.44089e-016 23.3781 0 -1.31266 -9.11788 1.01278 0 23.2821 2.11656 -0.769884 8.81106 1.28583 3.33067e-016 13.3416 -1.90594 -5.2163 18.3213 1.49145 3.82472 21.4916 -0.175476 26.5132 -9.8189 2.40466 10.8239 -2.84217e-014 7.10543e-015 -9.31469 -5.37876 -12.0655 28.5356 0 0 18.5197 -50.5573 -66.5446 24.5315 0 1.42109e-014 71.9657 -37.7757 7.72103 -3.77033 21.4916 -0.175476 -22.5333 -12.1316 10.2013 -10.8239 0 3.55271e-015 16.4535 -13.4577 27.3498 -28.5356 0 -3.55271e-015 -6.97832 -33.0022 84.1977 -24.5315 -1.42109e-014 -1.42109e-014 -80.1383 -25.4365 -2.80248 9.52968 0 -7.10543e-015 -6.08902 2.05247 8.872 0 -40.1884 0 1.48287 12.7432 3.65794 1.77636e-015 -39.9954 0 -7.52173 23.8467 -2.0168 0 -6.19429 14.2945 3.18055e-015 0 -1.59028e-015 -9.52968 1.42109e-014 0 0.44038 -5.86164 -5.75674 1.77636e-015 -40.1884 0 -6.93845 23.0623 -0.015019 0 -39.9954 0 9.37002 27.6033 8.06589 0 -6.19429 14.2945 7.95139e-016 -6.36111e-015 7.95139e-016 
0 0 0 0 0 -0 1.27825 95.4982 -48.9624 1.28811 3.61291 -1.87725 -2.22045e-016 7.81434 7.10543e-015 0.24506 2.18187 1.02791 -4.44089e-016 23.3781 0 -1.30437 -9.2054 0.927572 -1.11022e-016 23.2821 2.11656 -0.894812 9.5571 1.2563 2.22045e-016 13.3416 -1.90594 -5.14362 18.4887 1.46979 3.82472 21.4916 -0.175476 26.8934 -10.0801 2.55691 10.8239 2.84217e-014 0 -8.93272 -5.71664 -11.5144 28.5356 -2.84217e-014 7.10543e-015 16.5791 -49.3488 -66.7439 24.5315 1.42109e-014 0 71.7598 -38.0375 6.46544 -3.77033 21.4916 -0.175476 -22.6484 -12.3027 9.79779 -10.8239 0 0 16.3341 -13.2308 26.643 -28.5356 2.84217e-014 0 -7.07721 -33.0229 84.0751 -24.5315 1.42109e-014 0 -80.1578 -25.3709 -2.82655 9.52968 -1.42109e-014 0 -5.96768 1.87936 8.65226 0 -40.1884 0 1.49607 13.0185 3.053 0 -39.9954 1.42109e-014 -8.5182 25.8207 -1.25169 1.77636e-015 -6.19429 14.2945 -3.18055e-015 1.27222e-014 6.36111e-015 -9.52968 0 7.10543e-015 0.677973 -5.74912 -5.38121 0 -40.1884 0 -6.9755 22.9006 0.381606 0 -39.9954 0 10.3093 30.7039 6.4759 0 -6.19429 14.2945 -1.59028e-015 0 -3.18055e-015 
0 0 0 0 0 -0 1.27338 96.3222 -48.4172 1.28072 3.79963 -1.66729 2.22045e-016 7.81434 0 0.181993 1.8633 0.925216 0 23.3781 0 -1.36929 -9.54591 0.813835 0 23.2821 2.11656 -1.12381 10.9559 1.22666 -2.22045e-016 13.3416 -1.90594 -4.89248 17.8323 1.404 3.82472 21.4916 -0.175476 27.2167 -10.2843 2.61632 10.8239 0 0 -8.46475 -5.62479 -10.8816 28.5356 0 0 15.418 -48.3868 -66.3027 24.5315 0 -1.42109e-014 71.4251 -38.1774 5.44201 -3.77033 21.4916 -0.175476 -22.593 -12.272 9.48559 -10.8239 0 0 16.0836 -12.8645 25.9831 -28.5356 0 3.55271e-015 -7.53305 -33.257 83.7591 -24.5315 -1.42109e-014 0 -80.2279 -25.2792 -2.82854 9.52968 0 0 -5.81853 1.5291 8.12528 0 -40.1884 0 1.36333 13.5793 2.41587 0 -39.9954 0 -11.2003 27.6997 -0.447377 0 -6.19429 14.2945 1.59028e-015 3.18055e-015 1.59028e-015 -9.52968 0 0 0.83799 -5.83481 -4.98163 1.77636e-015 -40.1884 -7.10543e-015 -6.871 23.1596 0.46668 0 -39.9954 0 11.3292 33.3098 5.62969 1.77636e-015 -6.19429 14.2945 -7.95139e-016 0 -1.59028e-015 
0 0 0 0 0 -0 1.2661 97.1282 -47.9015 1.27373 4.011 -1.43527 0 7.81434 -7.10543e-015 0.033604 1.63156 0.823252 8.88178e-016 23.3781 0 -1.24942 -10.0241 0.714116 -1.11022e-016 23.2821 2.11656 -1.16791 11.7138 1.24902 2.22045e-016 13.3416 -1.90594 -5.05915 18.2491 1.44306 3.82472 21.4916 -0.175476 27.3503 -10.4914 2.6154 10.8239 2.84217e-014 0 -7.90485 -5.69634 -10.2008 28.5356 2.84217e-014 -7.10543e-015 14.3168 -47.2189 -65.8018 24.5315 0 -1.42109e-014 70.9593 -38.1373 4.28435 -3.77033 21.4916 -0.175476 -22.8113 -12.8542 9.56561 -10.8239 5.68434e-014 3.55271e-015 16.0512 -12.1004 24.5185 -28.5356 -2.84217e-014 3.55271e-015 -7.95971 -33.4501 83.695 -24.5315 1.42109e-014 0 -80.3469 -25.0945 -2.89083 9.52968 0 -7.10543e-015 -5.66077 0.964831 7.47568 0 -40.1884 0 1.14955 14.6846 1.94519 0 -39.9954 0 -3.54898 32.8123 -2.42107 -1.77636e-015 -6.19429 14.2945 -1.32417e-031 -3.18055e-015 -2.38542e-015 -9.52968 1.42109e-014 0 0.976377 -6.07359 -4.6553 0 -40.1884 0 -6.73503 23.7705 0.602688 0 -39.9954 0 12.4876 35.6144 4.88949 1.77636e-015 -6.19429 14.2945 4.41391e-032 3.18055e-015 -7.95139e-016 
0 0 0 0 0 -0 1.25572 97.9146 -47.4121 1.27777 4.20762 -1.19687 0 7.81434 0 -0.118032 1.45494 0.683647 0 23.3781 -7.10543e-015 -1.19121 -10.5139 0.572538 -1.11022e-016 23.2821 2.11656 -1.34453 13.1529 1.21789 0 13.3416 -1.90594 -4.98453 17.505 1.36476 3.82472 21.4916 -0.175476 27.5563 -10.5098 2.66722 10.8239 0 7.10543e-015 -7.41207 -6.11343 -9.5377 28.5356 0 -7.10543e-015 13.3339 -45.9005 -65.209 24.5315 0 0 70.4637 -37.92 3.06009 -3.77033 21.4916 -0.175476 -22.7503 -13.02 9.45121 -10.8239 2.84217e-014 7.10543e-015 15.777 -11.7575 23.5469 -28.5356 -2.84217e-014 3.55271e-015 -8.35714 -33.5006 83.4587 -24.5315 -1.42109e-014 1.42109e-014 -80.3861 -25.0011 -2.6941 9.52968 0 0 -5.53286 0.29162 6.82031 -3.55271e-015 -40.1884 0 0.85634 16.1463 1.67209 1.77636e-015 -39.9954 -1.42109e-014 -2.89059 34.408 -1.10464 0 -6.19429 14.2945 2.38542e-015 3.18055e-015 -0 -9.52968 0 -7.10543e-015 1.12578 -6.44606 -4.42679 0 -40.1884 -7.10543e-015 -6.60683 24.8211 0.438588 1.77636e-015 -39.9954 0 16.8147 36.7658 1.30142 1.77636e-015 -6.19429 14.2945 1.32417e-031 3.18055e-015 -2.38542e-015 
0 0 0 0 0 -0 1.24492 98.6919 -46.95 1.271 4.40477 -0.931647 4.44089e-016 7.81434 -7.10543e-015 -0.29243 1.38332 0.544759 0 23.3781 0 -1.07818 -11.1148 0.436295 -1.66533e-016 23.2821 2.11656 -1.55447 14.577 1.19307 0 13.3416 -1.90594 -4.86602 16.7777 1.2905 3.82472 21.4916 -0.175476 27.6796 -10.572 2.65179 10.8239 0 0 -6.87857 -6.38142 -8.80162 28.5356 0 7.10543e-015 12.8375 -44.5576 -64.237 24.5315 1.42109e-014 0 70.1127 -37.5172 1.76961 -3.77033 21.4916 -0.175476 -22.7279 -12.8517 9.23778 -10.8239 -2.84217e-014 -1.42109e-014 15.4925 -11.6141 22.6874 -28.5356 2.84217e-014 0 -8.84813 -33.6724 83.1154 -24.5315 0 -1.42109e-014 -80.5165 -25.0201 -2.44095 9.52968 -1.42109e-014 0 -5.43724 -0.572685 6.23344 0 -40.1884 0 0.563501 18.1912 1.23496 1.77636e-015 -39.9954 1.42109e-014 -4.90937 34.5759 2.70704 0 -6.19429 14.2945 -4.41391e-032 -3.18055e-015 -7.95139e-016 -9.52968 1.42109e-014 -7.10543e-015 1.29692 -6.97 -4.36063 1.77636e-015 -40.1884 0 -6.50329 26.386 0.198429 0 -39.9954 0 18.8514 36.9497 -1.87067 -3.55271e-015 -6.19429 14.2945 3.18055e-015 0 3.18055e-015 
0 0 0 0 0 -0 1.23486 99.4531 -46.5056 1.28133 4.57137 -0.677321 -4.44089e-016 7.81434 7.10543e-015 -0.515562 1.39625 0.392804 4.44089e-016 23.3781 0 -0.884422 -11.7347 0.295586 5.55112e-017 23.2821 2.11656 -1.81419 16.0088 1.22127 0 13.3416 -1.90594 -4.78378 15.9545 1.26326 3.82472 21.4916 -0.175476 27.952 -10.9789 2.81046 10.8239 2.84217e-014 0 -6.65788 -6.65049 -8.14296 28.5356 0 0 12.0586 -42.9729 -63.4956 24.5315 0 0 69.6752 -37.1515 0.163333 -3.77033 21.4916 -0.175476 -22.7142 -12.7915 9.16714 -10.8239 -2.84217e-014 0 15.1702 -11.3961 21.6389 -28.5356 2.84217e-014 1.06581e-014 -9.3537 -33.8918 82.8077 -24.5315 -1.42109e-014 -1.42109e-014 -80.5315 -24.9453 -2.36771 9.52968 0 0 -5.38574 -1.52257 5.6428 0 -40.1884 0 0.27499 20.6537 0.933013 0 -39.9954 0 -7.02202 33.6489 1.15531 -1.77636e-015 -6.19429 14.2945 -3.18055e-015 3.18055e-015 7.95139e-016 -9.52968 0 7.10543e-015 1.44849 -7.5816 -4.34314 -8.88178e-016 -40.1884 -7.10543e-015 -6.47072 28.4103 0.066131 1.77636e-015 -39.9954 -1.42109e-014 19.2745 35.6919 -4.05819 0 -6.19429 14.2945 1.59028e-015 0 -0 
0 0 0 0 0 -0 1.2148 100.177 -46.1004 1.25899 4.74127 -0.403731 0 7.81434 0 -0.697381 1.47212 0.251651 0 23.3781 0 -0.728306 -12.3818 0.163662 0 23.2821 2.11656 -1.93179 17.5783 1.20158 -1.77636e-015 13.3416 -1.90594 -4.90245 14.8222 1.16356 3.82472 21.4916 -0.175476 27.9208 -10.986 2.83946 10.8239 0 -7.10543e-015 -6.10216 -6.94033 -7.4746 28.5356 0 7.10543e-015 12.0429 -41.6433 -62.1719 24.5315 0 -1.42109e-014 69.3054 -36.5471 -1.05134 -3.77033 21.4916 -0.175476 -22.6595 -12.667 9.09164 -10.8239 -2.84217e-014 -7.10543e-015 14.8554 -11.2765 20.5197 -28.5356 -2.84217e-014 3.55271e-015 -9.81239 -34.1099 82.6138 -24.5315 0 1.42109e-014 -80.645 -24.9155 -2.26439 9.52968 0 0 -5.27626 -2.5819 5.06646 1.77636e-015 -40.1884 -7.10543e-015 -0.086818 23.423 1.57 0 -39.9954 0 -6.46554 33.1071 1.64807 1.77636e-015 -6.19429 14.2945 -4.77083e-015 0 -0 -9.52968 0 0 1.64534 -8.31052 -4.36238 0 -40.1884 0 -6.51119 30.6753 -0.222483 0 -39.9954 0 16.7849 33.7549 -3.51357 0 -6.19429 14.2945 3.18055e-015 -6.36111e-015 7.95139e-016 
0 0 0 0 0 -0 1.19747 100.893 -45.6983 1.26065 4.85167 -0.108935 0 7.81434 0 -0.897793 1.63053 0.103435 0 23.3781 -7.10543e-015 -0.579061 -12.964 0.024952 0 23.2821 2.11656 -2.32829 18.882 1.23474 0 13.3416 -1.90594 -4.57798 14.0128 1.13488 3.82472 21.4916 -0.175476 27.8047 -11.0881 2.95392 10.8239 0 -7.10543e-015 -5.53969 -7.08557 -6.87051 28.5356 -2.84217e-014 0 12.0433 -40.6111 -60.8273 24.5315 -1.42109e-014 0 69.0919 -36.4174 -2.53145 -3.77033 21.4916 -0.175476 -22.5005 -12.5897 8.87297 -10.8239 0 7.10543e-015 14.4738 -11.1433 19.5083 -28.5356 0 -3.55271e-015 -10.1649 -34.3469 82.5291 -24.5315 -1.42109e-014 -1.42109e-014 -80.9957 -24.9352 -2.20831 9.52968 1.42109e-014 0 -5.16281 -3.6784 4.35109 0 -40.1884 7.10543e-015 -0.630992 26.51 1.61963 0 -39.9954 0 -5.72356 31.6456 3.70689 1.77636e-015 -6.19429 14.2945 -1.76556e-031 -6.36111e-015 -1.59028e-015 -9.52968 0 -7.10543e-015 1.79033 -9.0729 -4.46125 -8.88178e-016 -40.1884 0 -6.66943 33.0699 -0.41263 0 -39.9954 0 14.8854 32.096 -3.10031 3.55271e-015 -6.19429 14.2945 -1.59028e-015 -3.18055e-015 1.59028e-015 
